<svg width="18px" height="18px" viewBox="0 0 18 18" version="1.1" xmlns="http://www.w3.org/2000/svg" xmlns:xlink="http://www.w3.org/1999/xlink">
    <g id="Main" stroke="none" stroke-width="1" fill="none" fill-rule="evenodd">
        <g id="Elements" transform="translate(-65.000000, -783.000000)" fill-rule="nonzero" fill="#FF6A80">
            <g id="actionButton-Copy-4" transform="translate(50.000000, 768.000000)">
                <g id="Group-4">
                    <g id="Group-10" transform="translate(15.000000, 15.000000)">
                        <path d="M9.16422505,7.04290471 L3.06066017,0.939339828 C2.47487373,0.353553391 1.52512627,0.353553391 0.939339828,0.939339828 C0.353553391,1.52512627 0.353553391,2.47487373 0.939339828,3.06066017 L7.04290471,9.16422505 L0.939339828,15.2677899 C0.353553391,15.8535764 0.353553391,16.8033238 0.939339828,17.3891103 C1.52512627,17.9748967 2.47487373,17.9748967 3.06066017,17.3891103 L9.16422505,11.2855454 L15.2677899,17.3891103 C15.8535764,17.9748967 16.8033238,17.9748967 17.3891103,17.3891103 C17.9748967,16.8033238 17.9748967,15.8535764 17.3891103,15.2677899 L11.2855454,9.16422505 L17.3891103,3.06066017 C17.9748967,2.47487373 17.9748967,1.52512627 17.3891103,0.939339828 C16.8033238,0.353553391 15.8535764,0.353553391 15.2677899,0.939339828 L9.16422505,7.04290471 Z" id="Combined-Shape"></path>
                    </g>
                </g>
            </g>
        </g>
    </g>
</svg>