<svg width="22" height="13" xmlns="http://www.w3.org/2000/svg"><path d="M10.76 12.87h1.32s.4-.05.6-.27c.18-.21.18-.6.18-.6s-.03-1.81.8-2.08c.8-.27 1.84 1.75 2.93 2.53.84.59 1.47.46 1.47.46l2.93-.04s1.54-.1.81-1.34c-.06-.1-.42-.92-2.18-2.6-1.84-1.77-1.6-1.48.62-4.53 1.35-1.85 1.9-2.98 1.72-3.47C21.8.47 20.81.6 20.81.6l-3.3.02s-.25-.03-.44.08c-.17.11-.29.37-.29.37s-.52 1.43-1.22 2.65c-1.47 2.58-2.06 2.71-2.3 2.55-.56-.37-.42-1.5-.42-2.3 0-2.49.37-3.53-.72-3.8A5.5 5.5 0 0 0 10.58 0C9.4 0 8.4 0 7.83.3c-.37.18-.66.6-.49.63.22.03.72.14.98.5.34.48.33 1.55.33 1.55s.2 2.93-.46 3.3c-.44.25-1.05-.26-2.37-2.6-.67-1.2-1.18-2.52-1.18-2.52s-.1-.25-.27-.38C4.16.62 3.86.57 3.86.57L.72.59S.25.61.07.82c-.15.18-.01.57-.01.57s2.46 5.93 5.25 8.92c2.55 2.74 5.45 2.56 5.45 2.56" fill="#303030" fill-rule="evenodd"/></svg>