<svg width="19" height="22" xmlns="http://www.w3.org/2000/svg"><path d="M12.45 3.57A4.84 4.84 0 0 0 13.5 0a5.15 5.15 0 0 0-3.34 1.8 4.5 4.5 0 0 0-1.1 3.5c1.28.03 2.6-.74 3.38-1.73zm6.33 12.56a15.44 15.44 0 0 1-1.43 2.67c-.92 1.42-2.22 3.17-3.82 3.19-1.44.01-1.8-.93-3.74-.92-1.95 0-2.35.94-3.78.93-1.61-.02-2.84-1.61-3.77-3.02A13.38 13.38 0 0 1 0 11.81c0-1.53.34-2.89.99-3.89a5.69 5.69 0 0 1 4.59-2.77c1.7 0 2.77.94 4.19.94 1.36 0 2.2-.94 4.17-.94 1.5 0 3.07.81 4.2 2.23-3.7 2.03-3.1 7.34.64 8.75z" fill="#303030" fill-rule="evenodd"/></svg>