<svg width="22" height="22" xmlns="http://www.w3.org/2000/svg"><path d="M11 0C4.93 0 0 5.05 0 11.28c0 4.98 3.15 9.2 7.52 10.7.55.1.75-.24.75-.54l-.01-1.92C5.2 20.2 4.56 18 4.56 18c-.5-1.3-1.23-1.65-1.23-1.65-1-.7.08-.69.08-.69 1.1.08 1.68 1.16 1.68 1.16.98 1.73 2.58 1.23 3.2.94.1-.73.39-1.23.7-1.5-2.44-.3-5-1.26-5-5.58 0-1.23.42-2.24 1.12-3.03-.1-.28-.49-1.43.11-2.98 0 0 .93-.3 3.03 1.15a10.32 10.32 0 0 1 5.5 0c2.1-1.46 3.03-1.15 3.03-1.15.6 1.55.22 2.7.1 2.98.71.8 1.14 1.8 1.14 3.03 0 4.33-2.58 5.29-5.03 5.56.4.35.75 1.04.75 2.1l-.01 3.09c0 .3.2.65.75.54A11.26 11.26 0 0 0 22 11.28C22 5.05 17.07 0 11 0" fill="#303030" fill-rule="evenodd"/></svg>