<svg width="19" height="26" xmlns="http://www.w3.org/2000/svg" xmlns:xlink="http://www.w3.org/1999/xlink"><defs><path id="a" d="M0 .08h18.96V25H0z"/></defs><g fill="none" fill-rule="evenodd"><g><mask id="b" fill="#fff"><use xlink:href="#a"/></mask><path d="M0 12.44c0-1.4.12-2.28 3.02-4.45C5.42 6.2 13.1.08 13.1.08V10.3h5.85V25H1.83C.83 25 0 24.18 0 23.18V12.44" fill="#FACA22" mask="url(#b)"/></g><path fill="#C9A521" d="M13.1 10.3v5.92L2.37 23.54l13.59-4.42V10.3H13.1"/><path d="M8.2 10c.62-.76 1.54-1.02 2.05-.6.5.42.4 1.37-.23 2.12s-1.55 1.02-2.05.6c-.5-.43-.4-1.38.23-2.13" fill="#000"/></g></svg>