<svg width="24px" height="18px" viewBox="0 0 24 18" version="1.1" xmlns="http://www.w3.org/2000/svg" xmlns:xlink="http://www.w3.org/1999/xlink">
    <g id="Main" stroke="none" stroke-width="1" fill="none" fill-rule="evenodd">
        <g class="ico" id="Elements" transform="translate(-290.000000, -466.000000)" fill-rule="nonzero" fill="#FF9F8C">
            <path d="M310.633581,474.000914 L291.000215,474.000914 C290.447812,474.000914 290,474.448629 290,475.000914 C290,475.553198 290.447812,476.000914 291.000215,476.000914 L310.633581,476.000914 L304.505695,482.304882 C304.1207,482.700939 304.129737,483.33404 304.52588,483.718952 C304.922022,484.103863 305.555259,484.094828 305.940254,483.698771 L313.716957,475.698607 C313.804846,475.608396 313.875837,475.501649 313.924818,475.383475 C314.024199,475.133814 314.024199,474.868013 313.929887,474.630914 C313.875837,474.500178 313.804846,474.393431 313.716957,474.30322 L305.940254,466.303056 C305.555259,465.906999 304.922022,465.897964 304.52588,466.282875 C304.129737,466.667787 304.1207,467.300888 304.505695,467.696945 L310.633581,474.000914 Z" id="Combined-Shape"></path>
        </g>
    </g>
</svg>
